<?xml version="1.0" encoding="UTF-8" standalone="no" ?>
<!DOCTYPE svg PUBLIC "-//W3C//DTD SVG 1.1//EN" "http://www.w3.org/Graphics/SVG/1.1/DTD/svg11.dtd">
<svg xmlns="http://www.w3.org/2000/svg" xmlns:xlink="http://www.w3.org/1999/xlink" version="1.1" width="640" height="480" viewBox="0 0 640 480" xml:space="preserve">
<defs>
</defs>
<g transform="matrix(0.83 0 0 0.83 265.56 185.56)"  >
<path style="stroke: rgb(20,48,87); stroke-width: 7; stroke-dasharray: none; stroke-linecap: butt; stroke-dashoffset: 0; stroke-linejoin: round; stroke-miterlimit: 4; fill: none; fill-rule: evenodd; opacity: 1;" vector-effect="non-scaling-stroke"  transform=" translate(-50, -50)" d="M 80 80 V 20 H 20 v 60 z m 20 20 V 0 H 0 v 100 z" stroke-linecap="round" />
</g>
<g transform="matrix(0.83 0 0 0.83 265.5 295.5)"  >
<path style="stroke: rgb(20,48,87); stroke-width: 7; stroke-dasharray: none; stroke-linecap: butt; stroke-dashoffset: 0; stroke-linejoin: round; stroke-miterlimit: 4; fill: none; fill-rule: evenodd; opacity: 1;" vector-effect="non-scaling-stroke"  transform=" translate(-50, -50)" d="M 80 80 V 20 H 20 v 60 z m 20 20 V 0 H 0 v 100 z" stroke-linecap="round" />
</g>
<g transform="matrix(0.83 0 0 0.83 375.5 185.5)"  >
<path style="stroke: rgb(20,48,87); stroke-width: 7; stroke-dasharray: none; stroke-linecap: butt; stroke-dashoffset: 0; stroke-linejoin: round; stroke-miterlimit: 4; fill: none; fill-rule: evenodd; opacity: 1;" vector-effect="non-scaling-stroke"  transform=" translate(-50, -50)" d="M 80 80 V 20 H 20 v 60 z m 20 20 V 0 H 0 v 100 z" stroke-linecap="round" />
</g>
<g transform="matrix(0.83 0 0 0.83 375.5 295.5)"  >
<path style="stroke: rgb(20,48,87); stroke-width: 7; stroke-dasharray: none; stroke-linecap: butt; stroke-dashoffset: 0; stroke-linejoin: round; stroke-miterlimit: 4; fill: none; fill-rule: evenodd; opacity: 1;" vector-effect="non-scaling-stroke"  transform=" translate(-50, -50)" d="M 80 80 V 20 H 20 v 60 z m 20 20 V 0 H 0 v 100 z" stroke-linecap="round" />
</g>
</svg>